<svg id="图层_1" data-name="图层 1" xmlns="http://www.w3.org/2000/svg" viewBox="0 0 599.38 528.7"><defs><style>.cls-1,.cls-2,.cls-3{fill:none;stroke:#000;stroke-miterlimit:10;}.cls-1{stroke-width:12px;}.cls-2{stroke-width:10px;}.cls-3{stroke-width:19px;}.cls-4{font-size:138px;font-family:Stencil Std;font-weight:700;}.cls-5{font-size:116.89px;font-family:Trajan Pro;}.cls-6{letter-spacing:2px;}</style></defs><title>Sink</title><rect x="310.5" y="9.38" width="71.3" height="34.8"/><rect x="216.98" width="164.82" height="13.08" rx="5.04" ry="5.04"/><path class="cls-1" d="M437,259.66c-0.45-21.38,1.19-23.72,30.48-24H643.36s0,139,0,139H792.57" transform="translate(-193.19 -145.98)"/><path class="cls-1" d="M380.28,259.66V234.33c0.71-21.76,21.27-40.74,49.93-44.16H693.1v139h99.47" transform="translate(-193.19 -145.98)"/><path class="cls-2" d="M502.1,573.4v48.14H302.36" transform="translate(-193.19 -145.98)"/><path class="cls-3" d="M502.1,636.11c0-22.18-19.77-40.13-44.21-40.13H305.31c-31.47,0-58.27-17.5-67-41.38a48.87,48.87,0,0,1-3-16.87V357.41c0-16.33-44.62-56.87-29.44-58.25s80.59,0,99.47,0l418-.61V537.74c0,32-31.52,58.25-70,58.25H597.09c-24.43,0-44.21,17.95-44.21,40.13" transform="translate(-193.19 -145.98)"/><path class="cls-2" d="M552.88,573.4v48.14c0,26.61-20.32,48.14-36,48.14H302.36" transform="translate(-193.19 -145.98)"/><text class="cls-4" transform="translate(90.67 299.68)">GNU</text><text class="cls-5" transform="translate(102.38 408.1)">E<tspan class="cls-6" x="71.3" y="0">m</tspan><tspan x="181.41" y="0">acs</tspan></text></svg>